<svg xmlns="http://www.w3.org/2000/svg" xmlns:xlink="http://www.w3.org/1999/xlink" width="80" zoomAndPan="magnify" viewBox="0 0 60 30.000001" height="40" preserveAspectRatio="xMidYMid meet" version="1.0"><defs><g/><clipPath id="46e17d3b8d"><path d="M 0.96875 4.902344 L 59.03125 4.902344 L 59.03125 24.132812 L 0.96875 24.132812 Z M 0.96875 4.902344 " clip-rule="nonzero"/></clipPath><clipPath id="c5ec5de43f"><path d="M 8.226562 4.902344 L 51.773438 4.902344 C 53.699219 4.902344 55.546875 5.667969 56.90625 7.027344 C 58.265625 8.386719 59.03125 10.234375 59.03125 12.160156 L 59.03125 16.871094 C 59.03125 18.796875 58.265625 20.644531 56.90625 22.003906 C 55.546875 23.367188 53.699219 24.132812 51.773438 24.132812 L 8.226562 24.132812 C 6.300781 24.132812 4.453125 23.367188 3.09375 22.003906 C 1.734375 20.644531 0.96875 18.796875 0.96875 16.871094 L 0.96875 12.160156 C 0.96875 10.234375 1.734375 8.386719 3.09375 7.027344 C 4.453125 5.667969 6.300781 4.902344 8.226562 4.902344 Z M 8.226562 4.902344 " clip-rule="nonzero"/></clipPath><clipPath id="600d16716a"><path d="M 0.96875 0.902344 L 59.03125 0.902344 L 59.03125 20.132812 L 0.96875 20.132812 Z M 0.96875 0.902344 " clip-rule="nonzero"/></clipPath><clipPath id="45401fe775"><path d="M 8.226562 0.902344 L 51.773438 0.902344 C 53.699219 0.902344 55.546875 1.667969 56.90625 3.027344 C 58.265625 4.386719 59.03125 6.234375 59.03125 8.160156 L 59.03125 12.871094 C 59.03125 14.796875 58.265625 16.644531 56.90625 18.003906 C 55.546875 19.367188 53.699219 20.132812 51.773438 20.132812 L 8.226562 20.132812 C 6.300781 20.132812 4.453125 19.367188 3.09375 18.003906 C 1.734375 16.644531 0.96875 14.796875 0.96875 12.871094 L 0.96875 8.160156 C 0.96875 6.234375 1.734375 4.386719 3.09375 3.027344 C 4.453125 1.667969 6.300781 0.902344 8.226562 0.902344 Z M 8.226562 0.902344 " clip-rule="nonzero"/></clipPath><clipPath id="f1a932810f"><rect x="0" width="60" y="0" height="21"/></clipPath><clipPath id="7971c5e981"><path d="M 40.835938 8.453125 L 53.175781 8.453125 L 53.175781 20.792969 L 40.835938 20.792969 Z M 40.835938 8.453125 " clip-rule="nonzero"/></clipPath><clipPath id="c9ba33d66a"><path d="M 0.167969 2 L 14 2 L 14 7 L 0.167969 7 Z M 0.167969 2 " clip-rule="nonzero"/></clipPath><clipPath id="179c2ab9c6"><path d="M 0.167969 9 L 10 9 L 10 14 L 0.167969 14 Z M 0.167969 9 " clip-rule="nonzero"/></clipPath><clipPath id="e7e4790a39"><rect x="0" width="24" y="0" height="16"/></clipPath></defs><g clip-path="url(#46e17d3b8d)"><g clip-path="url(#c5ec5de43f)"><g transform="matrix(1, 0, 0, 1, 0, 4)"><g clip-path="url(#f1a932810f)"><g clip-path="url(#600d16716a)"><g clip-path="url(#45401fe775)"><path fill="#1f8f3a" d="M 0.96875 0.902344 L 59.03125 0.902344 L 59.03125 20.132812 L 0.96875 20.132812 Z M 0.96875 0.902344 " fill-opacity="1" fill-rule="nonzero"/></g></g></g></g></g></g><g clip-path="url(#7971c5e981)"><path fill="#ffffff" d="M 47.019531 8.453125 C 43.609375 8.453125 40.835938 11.226562 40.835938 14.640625 C 40.835938 18.050781 43.609375 20.824219 47.019531 20.824219 C 50.433594 20.824219 53.207031 18.050781 53.207031 14.640625 C 53.207031 11.226562 50.433594 8.453125 47.019531 8.453125 Z M 49.496094 15.414062 L 47.792969 15.414062 L 47.792969 17.113281 C 47.792969 17.539062 47.449219 17.886719 47.019531 17.886719 C 46.59375 17.886719 46.246094 17.539062 46.246094 17.113281 L 46.246094 15.414062 L 44.546875 15.414062 C 44.121094 15.414062 43.773438 15.066406 43.773438 14.640625 C 43.773438 14.210938 44.121094 13.867188 44.546875 13.867188 L 46.246094 13.867188 L 46.246094 12.164062 C 46.246094 11.738281 46.59375 11.390625 47.019531 11.390625 C 47.449219 11.390625 47.792969 11.738281 47.792969 12.164062 L 47.792969 13.867188 L 49.496094 13.867188 C 49.921875 13.867188 50.269531 14.210938 50.269531 14.640625 C 50.269531 15.066406 49.921875 15.414062 49.496094 15.414062 Z M 49.496094 15.414062 " fill-opacity="1" fill-rule="nonzero"/></g><g transform="matrix(1, 0, 0, 1, 8, 7)"><g clip-path="url(#e7e4790a39)"><g clip-path="url(#c9ba33d66a)"><g fill="#ffffff" fill-opacity="1"><g transform="translate(0.389491, 6.389003)"><g><path d="M 3.328125 0 L 2.859375 0 L 2.515625 -1.015625 L 0.9375 -1.015625 L 0.59375 0 L 0.140625 0 L 1.4375 -3.6875 L 2.03125 -3.6875 Z M 1.703125 -3.25 L 1.0625 -1.375 L 2.390625 -1.375 L 1.765625 -3.25 Z M 1.703125 -3.25 "/></g></g><g transform="translate(3.854694, 6.389003)"><g><path d="M 1.4375 0.046875 C 1.21875 0.046875 1.019531 -0.00390625 0.84375 -0.109375 C 0.675781 -0.210938 0.546875 -0.375 0.453125 -0.59375 C 0.359375 -0.8125 0.3125 -1.078125 0.3125 -1.390625 C 0.3125 -1.710938 0.359375 -1.976562 0.453125 -2.1875 C 0.554688 -2.40625 0.695312 -2.566406 0.875 -2.671875 C 1.050781 -2.785156 1.257812 -2.84375 1.5 -2.84375 C 1.675781 -2.84375 1.835938 -2.804688 1.984375 -2.734375 C 2.140625 -2.660156 2.269531 -2.546875 2.375 -2.390625 L 2.421875 -2.40625 L 2.421875 -3.90625 L 2.84375 -3.90625 L 2.84375 0 L 2.421875 0 L 2.421875 -0.40625 L 2.375 -0.421875 C 2.28125 -0.273438 2.15625 -0.160156 2 -0.078125 C 1.84375 0.00390625 1.65625 0.046875 1.4375 0.046875 Z M 1.578125 -0.3125 C 1.835938 -0.3125 2.039062 -0.398438 2.1875 -0.578125 C 2.34375 -0.753906 2.421875 -1.023438 2.421875 -1.390625 C 2.421875 -1.753906 2.34375 -2.023438 2.1875 -2.203125 C 2.039062 -2.378906 1.835938 -2.46875 1.578125 -2.46875 C 1.304688 -2.46875 1.097656 -2.378906 0.953125 -2.203125 C 0.804688 -2.035156 0.734375 -1.765625 0.734375 -1.390625 C 0.734375 -0.671875 1.015625 -0.3125 1.578125 -0.3125 Z M 1.578125 -0.3125 "/></g></g><g transform="translate(7.176144, 6.389003)"><g><path d="M 1.4375 0.046875 C 1.21875 0.046875 1.019531 -0.00390625 0.84375 -0.109375 C 0.675781 -0.210938 0.546875 -0.375 0.453125 -0.59375 C 0.359375 -0.8125 0.3125 -1.078125 0.3125 -1.390625 C 0.3125 -1.710938 0.359375 -1.976562 0.453125 -2.1875 C 0.554688 -2.40625 0.695312 -2.566406 0.875 -2.671875 C 1.050781 -2.785156 1.257812 -2.84375 1.5 -2.84375 C 1.675781 -2.84375 1.835938 -2.804688 1.984375 -2.734375 C 2.140625 -2.660156 2.269531 -2.546875 2.375 -2.390625 L 2.421875 -2.40625 L 2.421875 -3.90625 L 2.84375 -3.90625 L 2.84375 0 L 2.421875 0 L 2.421875 -0.40625 L 2.375 -0.421875 C 2.28125 -0.273438 2.15625 -0.160156 2 -0.078125 C 1.84375 0.00390625 1.65625 0.046875 1.4375 0.046875 Z M 1.578125 -0.3125 C 1.835938 -0.3125 2.039062 -0.398438 2.1875 -0.578125 C 2.34375 -0.753906 2.421875 -1.023438 2.421875 -1.390625 C 2.421875 -1.753906 2.34375 -2.023438 2.1875 -2.203125 C 2.039062 -2.378906 1.835938 -2.46875 1.578125 -2.46875 C 1.304688 -2.46875 1.097656 -2.378906 0.953125 -2.203125 C 0.804688 -2.035156 0.734375 -1.765625 0.734375 -1.390625 C 0.734375 -0.671875 1.015625 -0.3125 1.578125 -0.3125 Z M 1.578125 -0.3125 "/></g></g><g transform="translate(10.497595, 6.389003)"><g/></g><g transform="translate(11.76363, 6.389003)"><g><path d="M 1.890625 -0.4375 L 2.015625 -0.140625 C 1.953125 -0.078125 1.863281 -0.03125 1.75 0 C 1.644531 0.03125 1.53125 0.046875 1.40625 0.046875 C 0.875 0.046875 0.609375 -0.21875 0.609375 -0.75 L 0.609375 -2.453125 L 0.125 -2.453125 L 0.125 -2.78125 L 0.609375 -2.78125 L 0.609375 -3.375 L 1.015625 -3.4375 L 1.015625 -2.78125 L 1.921875 -2.78125 L 1.921875 -2.453125 L 1.015625 -2.453125 L 1.015625 -0.796875 C 1.015625 -0.472656 1.15625 -0.3125 1.4375 -0.3125 C 1.59375 -0.3125 1.722656 -0.351562 1.828125 -0.4375 Z M 1.890625 -0.4375 "/></g></g></g></g><g fill="#ffffff" fill-opacity="1"><g transform="translate(13.849309, 6.389003)"><g><path d="M 1.59375 0.046875 C 1.332031 0.046875 1.101562 -0.00390625 0.90625 -0.109375 C 0.71875 -0.222656 0.570312 -0.382812 0.46875 -0.59375 C 0.363281 -0.8125 0.3125 -1.078125 0.3125 -1.390625 C 0.3125 -1.703125 0.363281 -1.960938 0.46875 -2.171875 C 0.570312 -2.390625 0.71875 -2.554688 0.90625 -2.671875 C 1.101562 -2.785156 1.332031 -2.84375 1.59375 -2.84375 C 1.863281 -2.84375 2.09375 -2.785156 2.28125 -2.671875 C 2.476562 -2.554688 2.628906 -2.390625 2.734375 -2.171875 C 2.835938 -1.960938 2.890625 -1.703125 2.890625 -1.390625 C 2.890625 -1.078125 2.835938 -0.8125 2.734375 -0.59375 C 2.628906 -0.382812 2.476562 -0.222656 2.28125 -0.109375 C 2.09375 -0.00390625 1.863281 0.046875 1.59375 0.046875 Z M 1.59375 -0.3125 C 1.875 -0.3125 2.085938 -0.398438 2.234375 -0.578125 C 2.378906 -0.753906 2.453125 -1.023438 2.453125 -1.390625 C 2.453125 -1.753906 2.378906 -2.023438 2.234375 -2.203125 C 2.085938 -2.378906 1.875 -2.46875 1.59375 -2.46875 C 1.320312 -2.46875 1.109375 -2.378906 0.953125 -2.203125 C 0.804688 -2.023438 0.734375 -1.753906 0.734375 -1.390625 C 0.734375 -1.023438 0.804688 -0.753906 0.953125 -0.578125 C 1.109375 -0.398438 1.320312 -0.3125 1.59375 -0.3125 Z M 1.59375 -0.3125 "/></g></g></g><g fill="#ffffff" fill-opacity="1"><g transform="translate(17.048023, 6.389003)"><g/></g></g><g clip-path="url(#179c2ab9c6)"><g fill="#ffffff" fill-opacity="1"><g transform="translate(0.389491, 13.275695)"><g><path d="M 2.046875 0.046875 C 1.722656 0.046875 1.429688 -0.0234375 1.171875 -0.171875 C 0.921875 -0.316406 0.722656 -0.53125 0.578125 -0.8125 C 0.441406 -1.101562 0.375 -1.445312 0.375 -1.84375 C 0.375 -2.238281 0.441406 -2.578125 0.578125 -2.859375 C 0.722656 -3.148438 0.921875 -3.367188 1.171875 -3.515625 C 1.429688 -3.671875 1.722656 -3.75 2.046875 -3.75 C 2.390625 -3.75 2.675781 -3.679688 2.90625 -3.546875 C 3.132812 -3.421875 3.296875 -3.222656 3.390625 -2.953125 L 3.125 -2.78125 L 3.0625 -2.78125 C 2.957031 -2.988281 2.820312 -3.132812 2.65625 -3.21875 C 2.5 -3.3125 2.296875 -3.359375 2.046875 -3.359375 C 1.804688 -3.359375 1.597656 -3.304688 1.421875 -3.203125 C 1.242188 -3.097656 1.097656 -2.929688 0.984375 -2.703125 C 0.878906 -2.484375 0.828125 -2.195312 0.828125 -1.84375 C 0.828125 -1.5 0.878906 -1.210938 0.984375 -0.984375 C 1.097656 -0.765625 1.242188 -0.601562 1.421875 -0.5 C 1.597656 -0.394531 1.804688 -0.34375 2.046875 -0.34375 C 2.304688 -0.34375 2.519531 -0.398438 2.6875 -0.515625 C 2.863281 -0.640625 2.992188 -0.835938 3.078125 -1.109375 L 3.140625 -1.109375 L 3.421875 -0.953125 C 3.335938 -0.628906 3.175781 -0.378906 2.9375 -0.203125 C 2.707031 -0.0351562 2.410156 0.046875 2.046875 0.046875 Z M 2.046875 0.046875 "/></g></g><g transform="translate(4.006013, 13.275695)"><g><path d="M 1.59375 0.046875 C 1.332031 0.046875 1.101562 -0.00390625 0.90625 -0.109375 C 0.71875 -0.222656 0.570312 -0.382812 0.46875 -0.59375 C 0.363281 -0.8125 0.3125 -1.078125 0.3125 -1.390625 C 0.3125 -1.703125 0.363281 -1.960938 0.46875 -2.171875 C 0.570312 -2.390625 0.71875 -2.554688 0.90625 -2.671875 C 1.101562 -2.785156 1.332031 -2.84375 1.59375 -2.84375 C 1.863281 -2.84375 2.09375 -2.785156 2.28125 -2.671875 C 2.476562 -2.554688 2.628906 -2.390625 2.734375 -2.171875 C 2.835938 -1.960938 2.890625 -1.703125 2.890625 -1.390625 C 2.890625 -1.078125 2.835938 -0.8125 2.734375 -0.59375 C 2.628906 -0.382812 2.476562 -0.222656 2.28125 -0.109375 C 2.09375 -0.00390625 1.863281 0.046875 1.59375 0.046875 Z M 1.59375 -0.3125 C 1.875 -0.3125 2.085938 -0.398438 2.234375 -0.578125 C 2.378906 -0.753906 2.453125 -1.023438 2.453125 -1.390625 C 2.453125 -1.753906 2.378906 -2.023438 2.234375 -2.203125 C 2.085938 -2.378906 1.875 -2.46875 1.59375 -2.46875 C 1.320312 -2.46875 1.109375 -2.378906 0.953125 -2.203125 C 0.804688 -2.023438 0.734375 -1.753906 0.734375 -1.390625 C 0.734375 -1.023438 0.804688 -0.753906 0.953125 -0.578125 C 1.109375 -0.398438 1.320312 -0.3125 1.59375 -0.3125 Z M 1.59375 -0.3125 "/></g></g><g transform="translate(7.198842, 13.275695)"><g><path d="M 0.484375 0 L 0.484375 -2.78125 L 0.875 -2.78125 L 0.875 -2.34375 L 0.921875 -2.328125 C 1.015625 -2.492188 1.132812 -2.617188 1.28125 -2.703125 C 1.425781 -2.796875 1.601562 -2.84375 1.8125 -2.84375 C 2.144531 -2.84375 2.382812 -2.753906 2.53125 -2.578125 C 2.6875 -2.410156 2.765625 -2.148438 2.765625 -1.796875 L 2.765625 0 L 2.359375 0 L 2.359375 -1.78125 C 2.359375 -1.945312 2.332031 -2.082031 2.28125 -2.1875 C 2.238281 -2.289062 2.171875 -2.363281 2.078125 -2.40625 C 1.992188 -2.457031 1.878906 -2.484375 1.734375 -2.484375 C 1.484375 -2.484375 1.28125 -2.398438 1.125 -2.234375 C 0.96875 -2.066406 0.890625 -1.796875 0.890625 -1.421875 L 0.890625 0 Z M 0.484375 0 "/></g></g></g></g><g fill="#ffffff" fill-opacity="1"><g transform="translate(10.381584, 13.275695)"><g><path d="M 1.890625 -0.4375 L 2.015625 -0.140625 C 1.953125 -0.078125 1.863281 -0.03125 1.75 0 C 1.644531 0.03125 1.53125 0.046875 1.40625 0.046875 C 0.875 0.046875 0.609375 -0.21875 0.609375 -0.75 L 0.609375 -2.453125 L 0.125 -2.453125 L 0.125 -2.78125 L 0.609375 -2.78125 L 0.609375 -3.375 L 1.015625 -3.4375 L 1.015625 -2.78125 L 1.921875 -2.78125 L 1.921875 -2.453125 L 1.015625 -2.453125 L 1.015625 -0.796875 C 1.015625 -0.472656 1.15625 -0.3125 1.4375 -0.3125 C 1.59375 -0.3125 1.722656 -0.351562 1.828125 -0.4375 Z M 1.890625 -0.4375 "/></g></g><g transform="translate(12.500049, 13.275695)"><g><path d="M 1.15625 0.046875 C 0.875 0.046875 0.65625 -0.0195312 0.5 -0.15625 C 0.351562 -0.300781 0.28125 -0.507812 0.28125 -0.78125 C 0.28125 -0.9375 0.3125 -1.070312 0.375 -1.1875 C 0.445312 -1.300781 0.550781 -1.394531 0.6875 -1.46875 C 0.832031 -1.539062 1.019531 -1.597656 1.25 -1.640625 C 1.457031 -1.671875 1.613281 -1.707031 1.71875 -1.75 C 1.820312 -1.789062 1.890625 -1.835938 1.921875 -1.890625 C 1.960938 -1.941406 1.984375 -2.007812 1.984375 -2.09375 C 1.984375 -2.21875 1.9375 -2.3125 1.84375 -2.375 C 1.757812 -2.445312 1.625 -2.484375 1.4375 -2.484375 C 1.257812 -2.484375 1.101562 -2.445312 0.96875 -2.375 C 0.84375 -2.300781 0.722656 -2.195312 0.609375 -2.0625 L 0.5625 -2.0625 L 0.359375 -2.34375 C 0.484375 -2.5 0.632812 -2.617188 0.8125 -2.703125 C 0.988281 -2.796875 1.195312 -2.84375 1.4375 -2.84375 C 1.757812 -2.84375 2 -2.769531 2.15625 -2.625 C 2.3125 -2.476562 2.390625 -2.28125 2.390625 -2.03125 L 2.390625 -0.546875 C 2.390625 -0.390625 2.457031 -0.3125 2.59375 -0.3125 C 2.632812 -0.3125 2.675781 -0.320312 2.71875 -0.34375 L 2.75 -0.328125 L 2.796875 -0.046875 C 2.765625 -0.0234375 2.722656 -0.0078125 2.671875 0 C 2.628906 0.0078125 2.582031 0.015625 2.53125 0.015625 C 2.375 0.015625 2.253906 -0.015625 2.171875 -0.078125 C 2.097656 -0.148438 2.050781 -0.25 2.03125 -0.375 L 1.984375 -0.390625 C 1.898438 -0.242188 1.789062 -0.132812 1.65625 -0.0625 C 1.519531 0.0078125 1.351562 0.046875 1.15625 0.046875 Z M 1.234375 -0.28125 C 1.390625 -0.28125 1.523438 -0.3125 1.640625 -0.375 C 1.753906 -0.445312 1.84375 -0.546875 1.90625 -0.671875 C 1.96875 -0.804688 2 -0.960938 2 -1.140625 L 2 -1.484375 L 1.953125 -1.5 C 1.890625 -1.457031 1.8125 -1.421875 1.71875 -1.390625 C 1.625 -1.359375 1.5 -1.332031 1.34375 -1.3125 C 1.1875 -1.289062 1.054688 -1.253906 0.953125 -1.203125 C 0.859375 -1.160156 0.789062 -1.101562 0.75 -1.03125 C 0.71875 -0.957031 0.703125 -0.875 0.703125 -0.78125 C 0.703125 -0.613281 0.75 -0.488281 0.84375 -0.40625 C 0.9375 -0.320312 1.066406 -0.28125 1.234375 -0.28125 Z M 1.234375 -0.28125 "/></g></g><g transform="translate(15.37763, 13.275695)"><g><path d="M 1.59375 0.046875 C 1.351562 0.046875 1.132812 -0.00390625 0.9375 -0.109375 C 0.738281 -0.222656 0.582031 -0.390625 0.46875 -0.609375 C 0.363281 -0.828125 0.3125 -1.085938 0.3125 -1.390625 C 0.3125 -1.691406 0.363281 -1.953125 0.46875 -2.171875 C 0.582031 -2.390625 0.738281 -2.554688 0.9375 -2.671875 C 1.132812 -2.785156 1.351562 -2.84375 1.59375 -2.84375 C 1.894531 -2.84375 2.128906 -2.785156 2.296875 -2.671875 C 2.472656 -2.554688 2.597656 -2.410156 2.671875 -2.234375 L 2.40625 -2.03125 L 2.34375 -2.03125 C 2.269531 -2.175781 2.171875 -2.285156 2.046875 -2.359375 C 1.929688 -2.429688 1.78125 -2.46875 1.59375 -2.46875 C 1.425781 -2.46875 1.273438 -2.425781 1.140625 -2.34375 C 1.015625 -2.269531 0.914062 -2.148438 0.84375 -1.984375 C 0.769531 -1.828125 0.734375 -1.628906 0.734375 -1.390625 C 0.734375 -1.160156 0.769531 -0.960938 0.84375 -0.796875 C 0.914062 -0.640625 1.015625 -0.519531 1.140625 -0.4375 C 1.273438 -0.351562 1.425781 -0.3125 1.59375 -0.3125 C 1.789062 -0.3125 1.953125 -0.351562 2.078125 -0.4375 C 2.203125 -0.53125 2.300781 -0.671875 2.375 -0.859375 L 2.4375 -0.859375 L 2.703125 -0.703125 C 2.628906 -0.460938 2.5 -0.273438 2.3125 -0.140625 C 2.125 -0.015625 1.882812 0.046875 1.59375 0.046875 Z M 1.59375 0.046875 "/></g></g><g transform="translate(18.245124, 13.275695)"><g><path d="M 1.890625 -0.4375 L 2.015625 -0.140625 C 1.953125 -0.078125 1.863281 -0.03125 1.75 0 C 1.644531 0.03125 1.53125 0.046875 1.40625 0.046875 C 0.875 0.046875 0.609375 -0.21875 0.609375 -0.75 L 0.609375 -2.453125 L 0.125 -2.453125 L 0.125 -2.78125 L 0.609375 -2.78125 L 0.609375 -3.375 L 1.015625 -3.4375 L 1.015625 -2.78125 L 1.921875 -2.78125 L 1.921875 -2.453125 L 1.015625 -2.453125 L 1.015625 -0.796875 C 1.015625 -0.472656 1.15625 -0.3125 1.4375 -0.3125 C 1.59375 -0.3125 1.722656 -0.351562 1.828125 -0.4375 Z M 1.890625 -0.4375 "/></g></g><g transform="translate(20.363589, 13.275695)"><g><path d="M 1.265625 0.046875 C 1.085938 0.046875 0.925781 0.0234375 0.78125 -0.015625 C 0.632812 -0.0546875 0.507812 -0.117188 0.40625 -0.203125 C 0.300781 -0.285156 0.226562 -0.378906 0.1875 -0.484375 L 0.4375 -0.734375 L 0.484375 -0.734375 C 0.578125 -0.597656 0.6875 -0.492188 0.8125 -0.421875 C 0.9375 -0.347656 1.085938 -0.3125 1.265625 -0.3125 C 1.472656 -0.3125 1.628906 -0.351562 1.734375 -0.4375 C 1.847656 -0.519531 1.90625 -0.628906 1.90625 -0.765625 C 1.90625 -0.878906 1.867188 -0.972656 1.796875 -1.046875 C 1.734375 -1.117188 1.628906 -1.171875 1.484375 -1.203125 L 1.015625 -1.3125 C 0.765625 -1.375 0.582031 -1.46875 0.46875 -1.59375 C 0.351562 -1.726562 0.296875 -1.894531 0.296875 -2.09375 C 0.296875 -2.25 0.332031 -2.378906 0.40625 -2.484375 C 0.488281 -2.597656 0.601562 -2.6875 0.75 -2.75 C 0.894531 -2.8125 1.066406 -2.84375 1.265625 -2.84375 C 1.523438 -2.84375 1.726562 -2.804688 1.875 -2.734375 C 2.019531 -2.660156 2.132812 -2.5625 2.21875 -2.4375 L 1.984375 -2.203125 L 1.9375 -2.203125 C 1.84375 -2.304688 1.742188 -2.378906 1.640625 -2.421875 C 1.535156 -2.472656 1.410156 -2.5 1.265625 -2.5 C 1.078125 -2.5 0.9375 -2.460938 0.84375 -2.390625 C 0.75 -2.328125 0.703125 -2.234375 0.703125 -2.109375 C 0.703125 -1.992188 0.734375 -1.898438 0.796875 -1.828125 C 0.867188 -1.765625 0.988281 -1.710938 1.15625 -1.671875 L 1.625 -1.5625 C 1.863281 -1.5 2.035156 -1.398438 2.140625 -1.265625 C 2.253906 -1.140625 2.3125 -0.976562 2.3125 -0.78125 C 2.3125 -0.613281 2.269531 -0.46875 2.1875 -0.34375 C 2.113281 -0.21875 2 -0.117188 1.84375 -0.046875 C 1.6875 0.015625 1.492188 0.046875 1.265625 0.046875 Z M 1.265625 0.046875 "/></g></g></g></g></g></svg>