<svg xmlns="http://www.w3.org/2000/svg" xmlns:xlink="http://www.w3.org/1999/xlink" width="40" zoomAndPan="magnify" viewBox="0 0 30 30.000001" height="40" preserveAspectRatio="xMidYMid meet" version="1.0"><defs><clipPath id="a244482bd9"><path d="M 0.484375 0 L 29.515625 0 L 29.515625 29.03125 L 0.484375 29.03125 Z M 0.484375 0 " clip-rule="nonzero"/></clipPath><clipPath id="cc75502e39"><path d="M 15 0 C 6.984375 0 0.484375 6.5 0.484375 14.515625 C 0.484375 22.53125 6.984375 29.03125 15 29.03125 C 23.015625 29.03125 29.515625 22.53125 29.515625 14.515625 C 29.515625 6.5 23.015625 0 15 0 Z M 15 0 " clip-rule="nonzero"/></clipPath><clipPath id="567ea74590"><path d="M 0.484375 0 L 29.515625 0 L 29.515625 29.03125 L 0.484375 29.03125 Z M 0.484375 0 " clip-rule="nonzero"/></clipPath><clipPath id="74f00d9984"><path d="M 15 0 C 6.984375 0 0.484375 6.5 0.484375 14.515625 C 0.484375 22.53125 6.984375 29.03125 15 29.03125 C 23.015625 29.03125 29.515625 22.53125 29.515625 14.515625 C 29.515625 6.5 23.015625 0 15 0 Z M 15 0 " clip-rule="nonzero"/></clipPath><clipPath id="6a97dc4e45"><rect x="0" width="30" y="0" height="30"/></clipPath><clipPath id="5ed14799ad"><path d="M 10 4.648438 L 24.546875 4.648438 L 24.546875 19 L 10 19 Z M 10 4.648438 " clip-rule="nonzero"/></clipPath><clipPath id="458b67e1ff"><path d="M 6.402344 18 L 13 18 L 13 24.246094 L 6.402344 24.246094 Z M 6.402344 18 " clip-rule="nonzero"/></clipPath></defs><g clip-path="url(#a244482bd9)"><g clip-path="url(#cc75502e39)"><g transform="matrix(1, 0, 0, 1, 0, 0.000000000000005692)"><g clip-path="url(#6a97dc4e45)"><g clip-path="url(#567ea74590)"><g clip-path="url(#74f00d9984)"><path fill="#1f8f3a" d="M 0.484375 0 L 29.515625 0 L 29.515625 29.03125 L 0.484375 29.03125 Z M 0.484375 0 " fill-opacity="1" fill-rule="nonzero"/></g></g></g></g></g></g><g clip-path="url(#5ed14799ad)"><path fill="#ffffff" d="M 17.28125 18.820312 C 16.75 18.816406 16.222656 18.757812 15.699219 18.636719 C 15.179688 18.515625 14.679688 18.339844 14.199219 18.105469 C 13.71875 17.871094 13.269531 17.589844 12.851562 17.253906 C 12.4375 16.917969 12.0625 16.542969 11.734375 16.121094 C 11.402344 15.703125 11.121094 15.25 10.894531 14.769531 C 10.664062 14.285156 10.492188 13.785156 10.378906 13.261719 C 10.261719 12.738281 10.207031 12.210938 10.210938 11.675781 C 10.214844 11.144531 10.277344 10.617188 10.402344 10.097656 C 10.527344 9.578125 10.707031 9.078125 10.941406 8.597656 C 11.179688 8.117188 11.46875 7.671875 11.804688 7.257812 C 12.140625 6.84375 12.523438 6.472656 12.945312 6.144531 C 13.367188 5.816406 13.816406 5.539062 14.300781 5.3125 C 14.785156 5.089844 15.289062 4.921875 15.8125 4.808594 C 16.335938 4.695312 16.863281 4.644531 17.398438 4.652344 C 17.933594 4.660156 18.457031 4.726562 18.976562 4.855469 C 19.496094 4.980469 19.996094 5.164062 20.472656 5.40625 C 20.949219 5.644531 21.394531 5.933594 21.804688 6.277344 C 22.21875 6.617188 22.585938 7 22.914062 7.421875 C 23.238281 7.847656 23.511719 8.300781 23.734375 8.785156 C 23.957031 9.273438 24.121094 9.777344 24.230469 10.300781 C 24.339844 10.824219 24.386719 11.351562 24.375 11.886719 C 24.363281 12.421875 24.292969 12.945312 24.164062 13.464844 C 24.03125 13.984375 23.84375 14.480469 23.601562 14.957031 C 23.359375 15.429688 23.066406 15.875 22.722656 16.285156 C 22.050781 17.089844 21.238281 17.714844 20.285156 18.160156 C 19.335938 18.601562 18.332031 18.820312 17.28125 18.820312 Z M 17.300781 5.226562 C 17.105469 5.226562 16.910156 5.238281 16.714844 5.253906 C 15.855469 5.328125 15.042969 5.5625 14.277344 5.964844 C 13.511719 6.363281 12.851562 6.894531 12.300781 7.558594 C 10 10.308594 10.363281 14.417969 13.113281 16.71875 C 13.3125 16.886719 13.519531 17.042969 13.738281 17.183594 C 13.957031 17.328125 14.183594 17.453125 14.417969 17.570312 C 14.652344 17.683594 14.890625 17.785156 15.136719 17.871094 C 15.382812 17.957031 15.632812 18.027344 15.886719 18.085938 C 16.140625 18.140625 16.394531 18.183594 16.65625 18.207031 C 16.914062 18.230469 17.175781 18.242188 17.433594 18.234375 C 17.695312 18.230469 17.953125 18.210938 18.210938 18.171875 C 18.46875 18.136719 18.722656 18.082031 18.976562 18.015625 C 19.226562 17.949219 19.472656 17.867188 19.714844 17.769531 C 19.957031 17.671875 20.191406 17.5625 20.417969 17.433594 C 20.648438 17.308594 20.867188 17.171875 21.078125 17.019531 C 21.289062 16.867188 21.492188 16.703125 21.683594 16.527344 C 21.875 16.351562 22.054688 16.167969 22.226562 15.96875 C 22.394531 15.769531 22.550781 15.5625 22.695312 15.347656 C 22.839844 15.132812 22.972656 14.90625 23.089844 14.675781 C 23.207031 14.441406 23.3125 14.203125 23.402344 13.960938 C 23.488281 13.714844 23.5625 13.464844 23.621094 13.210938 C 23.683594 12.960938 23.726562 12.703125 23.753906 12.445312 C 23.78125 12.1875 23.796875 11.925781 23.792969 11.664062 C 23.789062 11.40625 23.773438 11.148438 23.738281 10.886719 C 23.703125 10.628906 23.65625 10.375 23.589844 10.121094 C 23.527344 9.871094 23.449219 9.625 23.351562 9.378906 C 23.257812 9.136719 23.152344 8.902344 23.027344 8.671875 C 22.90625 8.441406 22.769531 8.222656 22.621094 8.007812 C 22.472656 7.792969 22.3125 7.589844 22.136719 7.394531 C 21.964844 7.203125 21.777344 7.019531 21.582031 6.847656 C 21.386719 6.675781 21.183594 6.515625 20.96875 6.367188 C 20.753906 6.222656 20.53125 6.085938 20.300781 5.96875 C 20.070312 5.847656 19.832031 5.742188 19.589844 5.648438 C 19.34375 5.554688 19.097656 5.480469 18.84375 5.417969 C 18.59375 5.355469 18.335938 5.308594 18.078125 5.277344 C 17.820312 5.246094 17.558594 5.230469 17.300781 5.226562 Z M 17.300781 5.226562 " fill-opacity="1" fill-rule="nonzero"/></g><path fill="#ffffff" d="M 11.023438 19.507812 C 10.902344 19.507812 10.8125 19.449219 10.761719 19.339844 C 10.707031 19.226562 10.722656 19.121094 10.800781 19.027344 L 12.703125 16.757812 C 12.753906 16.695312 12.820312 16.660156 12.898438 16.652344 C 12.980469 16.648438 13.050781 16.667969 13.113281 16.722656 C 13.175781 16.773438 13.210938 16.839844 13.214844 16.917969 C 13.222656 17 13.199219 17.070312 13.148438 17.132812 L 11.25 19.402344 C 11.191406 19.472656 11.117188 19.507812 11.023438 19.507812 Z M 11.023438 19.507812 " fill-opacity="1" fill-rule="nonzero"/><g clip-path="url(#458b67e1ff)"><path fill="#ffffff" d="M 8.34375 24.382812 C 8.273438 24.382812 8.210938 24.359375 8.15625 24.3125 L 6.507812 22.9375 C 6.449219 22.882812 6.414062 22.820312 6.40625 22.738281 C 6.398438 22.65625 6.421875 22.585938 6.472656 22.523438 L 9.976562 18.339844 C 10.03125 18.277344 10.09375 18.242188 10.175781 18.234375 C 10.253906 18.226562 10.328125 18.25 10.386719 18.300781 L 12.035156 19.679688 C 12.097656 19.730469 12.128906 19.796875 12.136719 19.878906 C 12.144531 19.957031 12.121094 20.03125 12.070312 20.089844 L 8.566406 24.277344 C 8.515625 24.339844 8.449219 24.375 8.367188 24.382812 C 8.359375 24.382812 8.351562 24.382812 8.34375 24.382812 Z M 7.105469 22.675781 L 8.304688 23.679688 L 11.4375 19.9375 L 10.238281 18.933594 Z M 7.105469 22.675781 " fill-opacity="1" fill-rule="nonzero"/></g><path fill="#ffffff" d="M 17.285156 17.230469 C 15.949219 17.234375 14.773438 16.804688 13.753906 15.945312 C 13.691406 15.894531 13.652344 15.828125 13.644531 15.746094 C 13.636719 15.667969 13.660156 15.59375 13.710938 15.53125 C 13.765625 15.46875 13.832031 15.433594 13.914062 15.429688 C 13.996094 15.421875 14.066406 15.445312 14.128906 15.5 C 14.375 15.707031 14.640625 15.886719 14.921875 16.042969 C 15.207031 16.199219 15.503906 16.324219 15.808594 16.421875 C 16.117188 16.515625 16.433594 16.582031 16.753906 16.617188 C 17.074219 16.652344 17.394531 16.65625 17.714844 16.628906 C 18.039062 16.601562 18.351562 16.542969 18.664062 16.453125 C 18.972656 16.359375 19.269531 16.242188 19.558594 16.09375 C 19.84375 15.945312 20.113281 15.769531 20.363281 15.566406 C 20.617188 15.367188 20.847656 15.140625 21.054688 14.894531 C 21.105469 14.832031 21.171875 14.796875 21.253906 14.785156 C 21.332031 14.777344 21.40625 14.800781 21.46875 14.855469 C 21.53125 14.90625 21.566406 14.972656 21.570312 15.054688 C 21.578125 15.136719 21.554688 15.207031 21.5 15.269531 C 20.976562 15.890625 20.347656 16.375 19.609375 16.71875 C 18.871094 17.0625 18.097656 17.230469 17.285156 17.230469 Z M 17.285156 17.230469 " fill-opacity="1" fill-rule="nonzero"/><path fill="#ffffff" d="M 13.300781 8.675781 C 13.175781 8.675781 13.085938 8.621094 13.035156 8.507812 C 12.984375 8.394531 12.996094 8.292969 13.078125 8.199219 C 13.640625 7.53125 14.324219 7.023438 15.128906 6.679688 C 15.929688 6.335938 16.769531 6.191406 17.640625 6.246094 C 17.722656 6.25 17.789062 6.28125 17.84375 6.34375 C 17.894531 6.402344 17.917969 6.472656 17.914062 6.554688 C 17.910156 6.636719 17.875 6.703125 17.816406 6.753906 C 17.753906 6.808594 17.683594 6.832031 17.605469 6.828125 C 16.824219 6.777344 16.074219 6.910156 15.355469 7.214844 C 14.640625 7.523438 14.027344 7.976562 13.523438 8.574219 C 13.464844 8.644531 13.390625 8.675781 13.300781 8.675781 Z M 13.300781 8.675781 " fill-opacity="1" fill-rule="nonzero"/></svg>