<svg xmlns="http://www.w3.org/2000/svg" xmlns:xlink="http://www.w3.org/1999/xlink" width="40" zoomAndPan="magnify" viewBox="0 0 30 30.000001" height="40" preserveAspectRatio="xMidYMid meet" version="1.0"><defs><clipPath id="2360574fce"><path d="M 0.484375 0 L 29.515625 0 L 29.515625 29.03125 L 0.484375 29.03125 Z M 0.484375 0 " clip-rule="nonzero"/></clipPath><clipPath id="001c573e9c"><path d="M 15 0 C 6.984375 0 0.484375 6.5 0.484375 14.515625 C 0.484375 22.53125 6.984375 29.03125 15 29.03125 C 23.015625 29.03125 29.515625 22.53125 29.515625 14.515625 C 29.515625 6.5 23.015625 0 15 0 Z M 15 0 " clip-rule="nonzero"/></clipPath><clipPath id="62cd19ae9c"><path d="M 0.484375 0 L 29.515625 0 L 29.515625 29.03125 L 0.484375 29.03125 Z M 0.484375 0 " clip-rule="nonzero"/></clipPath><clipPath id="a0a70776bd"><path d="M 15 0 C 6.984375 0 0.484375 6.5 0.484375 14.515625 C 0.484375 22.53125 6.984375 29.03125 15 29.03125 C 23.015625 29.03125 29.515625 22.53125 29.515625 14.515625 C 29.515625 6.5 23.015625 0 15 0 Z M 15 0 " clip-rule="nonzero"/></clipPath><clipPath id="6a6bf4e114"><rect x="0" width="30" y="0" height="30"/></clipPath><clipPath id="7dfdc8fabf"><path d="M 7.210938 6.527344 L 22.453125 6.527344 L 22.453125 21.769531 L 7.210938 21.769531 Z M 7.210938 6.527344 " clip-rule="nonzero"/></clipPath></defs><g clip-path="url(#2360574fce)"><g clip-path="url(#001c573e9c)"><g transform="matrix(1, 0, 0, 1, 0, 0.000000000000005692)"><g clip-path="url(#6a6bf4e114)"><g clip-path="url(#62cd19ae9c)"><g clip-path="url(#a0a70776bd)"><path fill="#1f8f3a" d="M 0.484375 0 L 29.515625 0 L 29.515625 29.03125 L 0.484375 29.03125 Z M 0.484375 0 " fill-opacity="1" fill-rule="nonzero"/></g></g></g></g></g></g><g clip-path="url(#7dfdc8fabf)"><path fill="#ffffff" d="M 21.582031 22.101562 L 19.191406 22.101562 C 18.933594 22.101562 18.722656 21.890625 18.722656 21.628906 C 18.722656 21.367188 18.933594 21.15625 19.191406 21.15625 L 21.582031 21.15625 C 21.722656 21.15625 21.839844 21.039062 21.839844 20.902344 L 21.839844 18.511719 C 21.839844 18.25 22.050781 18.039062 22.3125 18.039062 C 22.570312 18.039062 22.78125 18.25 22.78125 18.511719 L 22.78125 20.902344 C 22.78125 21.5625 22.246094 22.101562 21.582031 22.101562 Z M 10.800781 22.101562 L 8.410156 22.101562 C 7.75 22.101562 7.210938 21.5625 7.210938 20.902344 L 7.210938 18.511719 C 7.210938 18.25 7.421875 18.039062 7.683594 18.039062 C 7.941406 18.039062 8.152344 18.25 8.152344 18.511719 L 8.152344 20.902344 C 8.152344 21.039062 8.273438 21.15625 8.410156 21.15625 L 10.800781 21.15625 C 11.0625 21.15625 11.273438 21.367188 11.273438 21.628906 C 11.273438 21.890625 11.0625 22.101562 10.800781 22.101562 Z M 22.3125 10.589844 C 22.050781 10.589844 21.839844 10.378906 21.839844 10.117188 L 21.839844 7.730469 C 21.839844 7.589844 21.722656 7.472656 21.582031 7.472656 L 19.191406 7.472656 C 18.933594 7.472656 18.722656 7.261719 18.722656 7 C 18.722656 6.738281 18.933594 6.527344 19.191406 6.527344 L 21.582031 6.527344 C 22.246094 6.527344 22.78125 7.066406 22.78125 7.730469 L 22.78125 10.117188 C 22.78125 10.378906 22.570312 10.589844 22.3125 10.589844 Z M 7.683594 10.589844 C 7.421875 10.589844 7.210938 10.378906 7.210938 10.117188 L 7.210938 7.730469 C 7.210938 7.066406 7.75 6.527344 8.410156 6.527344 L 10.800781 6.527344 C 11.0625 6.527344 11.273438 6.738281 11.273438 7 C 11.273438 7.261719 11.0625 7.472656 10.800781 7.472656 L 8.410156 7.472656 C 8.273438 7.472656 8.152344 7.589844 8.152344 7.730469 L 8.152344 10.117188 C 8.152344 10.378906 7.941406 10.589844 7.683594 10.589844 Z M 12.019531 12.378906 L 9.839844 12.378906 C 9.265625 12.378906 8.796875 11.910156 8.796875 11.335938 L 8.796875 9.15625 C 8.796875 8.582031 9.265625 8.113281 9.839844 8.113281 L 12.019531 8.113281 C 12.59375 8.113281 13.058594 8.582031 13.058594 9.15625 L 13.058594 11.335938 C 13.058594 11.910156 12.59375 12.378906 12.019531 12.378906 Z M 9.839844 9.054688 C 9.785156 9.054688 9.738281 9.101562 9.738281 9.15625 L 9.738281 11.335938 C 9.738281 11.390625 9.785156 11.4375 9.839844 11.4375 L 12.019531 11.4375 C 12.074219 11.4375 12.117188 11.390625 12.117188 11.335938 L 12.117188 9.15625 C 12.117188 9.101562 12.074219 9.054688 12.019531 9.054688 Z M 20.15625 12.378906 L 17.976562 12.378906 C 17.402344 12.378906 16.933594 11.910156 16.933594 11.335938 L 16.933594 9.15625 C 16.933594 8.582031 17.402344 8.113281 17.976562 8.113281 L 20.15625 8.113281 C 20.730469 8.113281 21.199219 8.582031 21.199219 9.15625 L 21.199219 11.335938 C 21.199219 11.910156 20.730469 12.378906 20.15625 12.378906 Z M 17.976562 9.054688 C 17.921875 9.054688 17.875 9.101562 17.875 9.15625 L 17.875 11.335938 C 17.875 11.390625 17.921875 11.4375 17.976562 11.4375 L 20.15625 11.4375 C 20.210938 11.4375 20.257812 11.390625 20.257812 11.335938 L 20.257812 9.15625 C 20.257812 9.101562 20.210938 9.054688 20.15625 9.054688 Z M 12.019531 20.515625 L 9.839844 20.515625 C 9.265625 20.515625 8.796875 20.046875 8.796875 19.472656 L 8.796875 17.292969 C 8.796875 16.71875 9.265625 16.253906 9.839844 16.253906 L 12.019531 16.253906 C 12.59375 16.253906 13.058594 16.71875 13.058594 17.292969 L 13.058594 19.472656 C 13.058594 20.046875 12.59375 20.515625 12.019531 20.515625 Z M 9.839844 17.195312 C 9.785156 17.195312 9.738281 17.238281 9.738281 17.292969 L 9.738281 19.472656 C 9.738281 19.527344 9.785156 19.574219 9.839844 19.574219 L 12.019531 19.574219 C 12.074219 19.574219 12.117188 19.527344 12.117188 19.472656 L 12.117188 17.292969 C 12.117188 17.238281 12.074219 17.195312 12.019531 17.195312 Z M 20.15625 20.515625 L 17.976562 20.515625 C 17.402344 20.515625 16.933594 20.046875 16.933594 19.472656 L 16.933594 17.292969 C 16.933594 16.71875 17.402344 16.253906 17.976562 16.253906 L 20.15625 16.253906 C 20.730469 16.253906 21.199219 16.71875 21.199219 17.292969 L 21.199219 19.472656 C 21.199219 20.046875 20.730469 20.515625 20.15625 20.515625 Z M 17.976562 17.195312 C 17.921875 17.195312 17.875 17.238281 17.875 17.292969 L 17.875 19.472656 C 17.875 19.527344 17.921875 19.574219 17.976562 19.574219 L 20.15625 19.574219 C 20.210938 19.574219 20.257812 19.527344 20.257812 19.472656 L 20.257812 17.292969 C 20.257812 17.238281 20.210938 17.195312 20.15625 17.195312 Z M 21.199219 13.476562 C 21.199219 13.214844 20.988281 13.003906 20.726562 13.003906 L 18.972656 13.003906 C 18.714844 13.003906 18.503906 13.214844 18.503906 13.476562 C 18.503906 13.734375 18.714844 13.945312 18.972656 13.945312 L 20.726562 13.945312 C 20.988281 13.945312 21.199219 13.734375 21.199219 13.476562 Z M 17.875 13.476562 C 17.875 13.214844 17.664062 13.003906 17.40625 13.003906 L 14.628906 13.003906 L 14.628906 8.585938 C 14.628906 8.324219 14.417969 8.113281 14.160156 8.113281 C 13.898438 8.113281 13.6875 8.324219 13.6875 8.585938 L 13.6875 13.003906 C 13.6875 13.523438 14.109375 13.945312 14.628906 13.945312 L 17.40625 13.945312 C 17.664062 13.945312 17.875 13.734375 17.875 13.476562 Z M 16.304688 11.90625 L 16.304688 8.585938 C 16.304688 8.324219 16.09375 8.113281 15.835938 8.113281 C 15.574219 8.113281 15.363281 8.324219 15.363281 8.585938 L 15.363281 11.90625 C 15.363281 12.167969 15.574219 12.378906 15.835938 12.378906 C 16.09375 12.378906 16.304688 12.167969 16.304688 11.90625 Z M 13.058594 13.476562 C 13.058594 13.214844 12.847656 13.003906 12.589844 13.003906 L 9.265625 13.003906 C 9.007812 13.003906 8.796875 13.214844 8.796875 13.476562 C 8.796875 13.734375 9.007812 13.945312 9.265625 13.945312 L 12.589844 13.945312 C 12.847656 13.945312 13.058594 13.734375 13.058594 13.476562 Z M 11.492188 15.152344 C 11.492188 14.894531 11.28125 14.683594 11.019531 14.683594 L 9.265625 14.683594 C 9.007812 14.683594 8.796875 14.894531 8.796875 15.152344 C 8.796875 15.414062 9.007812 15.625 9.265625 15.625 L 11.019531 15.625 C 11.28125 15.625 11.492188 15.414062 11.492188 15.152344 Z M 16.304688 20.046875 L 16.304688 15.625 C 16.304688 15.105469 15.882812 14.683594 15.363281 14.683594 L 12.589844 14.683594 C 12.328125 14.683594 12.117188 14.894531 12.117188 15.152344 C 12.117188 15.414062 12.328125 15.625 12.589844 15.625 L 15.363281 15.625 L 15.363281 20.046875 C 15.363281 20.304688 15.574219 20.515625 15.835938 20.515625 C 16.09375 20.515625 16.304688 20.304688 16.304688 20.046875 Z M 14.628906 20.046875 L 14.628906 16.722656 C 14.628906 16.464844 14.417969 16.253906 14.160156 16.253906 C 13.898438 16.253906 13.6875 16.464844 13.6875 16.722656 L 13.6875 20.046875 C 13.6875 20.304688 13.898438 20.515625 14.160156 20.515625 C 14.417969 20.515625 14.628906 20.304688 14.628906 20.046875 Z M 21.199219 15.152344 C 21.199219 14.894531 20.988281 14.683594 20.726562 14.683594 L 17.40625 14.683594 C 17.144531 14.683594 16.933594 14.894531 16.933594 15.152344 C 16.933594 15.414062 17.144531 15.625 17.40625 15.625 L 20.726562 15.625 C 20.988281 15.625 21.199219 15.414062 21.199219 15.152344 Z M 11.414062 9.773438 L 10.441406 9.773438 L 10.441406 10.714844 L 11.414062 10.714844 Z M 19.554688 9.773438 L 18.578125 9.773438 L 18.578125 10.714844 L 19.554688 10.714844 Z M 11.414062 17.914062 L 10.441406 17.914062 L 10.441406 18.855469 L 11.414062 18.855469 Z M 19.554688 17.914062 L 18.578125 17.914062 L 18.578125 18.855469 L 19.554688 18.855469 Z M 19.554688 17.914062 " fill-opacity="1" fill-rule="nonzero"/></g></svg>