<svg xmlns="http://www.w3.org/2000/svg" xmlns:xlink="http://www.w3.org/1999/xlink" width="40" zoomAndPan="magnify" viewBox="0 0 30 30.000001" height="40" preserveAspectRatio="xMidYMid meet" version="1.0"><defs><clipPath id="bfbbb3bac1"><path d="M 0.484375 0 L 29.515625 0 L 29.515625 29.03125 L 0.484375 29.03125 Z M 0.484375 0 " clip-rule="nonzero"/></clipPath><clipPath id="0842e1ce4a"><path d="M 15 0 C 6.984375 0 0.484375 6.5 0.484375 14.515625 C 0.484375 22.53125 6.984375 29.03125 15 29.03125 C 23.015625 29.03125 29.515625 22.53125 29.515625 14.515625 C 29.515625 6.5 23.015625 0 15 0 Z M 15 0 " clip-rule="nonzero"/></clipPath><clipPath id="16a3a447a7"><path d="M 0.484375 0 L 29.515625 0 L 29.515625 29.03125 L 0.484375 29.03125 Z M 0.484375 0 " clip-rule="nonzero"/></clipPath><clipPath id="32772fdf6c"><path d="M 15 0 C 6.984375 0 0.484375 6.5 0.484375 14.515625 C 0.484375 22.53125 6.984375 29.03125 15 29.03125 C 23.015625 29.03125 29.515625 22.53125 29.515625 14.515625 C 29.515625 6.5 23.015625 0 15 0 Z M 15 0 " clip-rule="nonzero"/></clipPath><clipPath id="84e69f48ed"><rect x="0" width="30" y="0" height="30"/></clipPath><clipPath id="afc6f310e9"><path d="M 7.183594 3.828125 L 23 3.828125 L 23 23.425781 L 7.183594 23.425781 Z M 7.183594 3.828125 " clip-rule="nonzero"/></clipPath></defs><g clip-path="url(#bfbbb3bac1)"><g clip-path="url(#0842e1ce4a)"><g transform="matrix(1, 0, 0, 1, 0, 0.000000000000005692)"><g clip-path="url(#84e69f48ed)"><g clip-path="url(#16a3a447a7)"><g clip-path="url(#32772fdf6c)"><path fill="#1f8f3a" d="M 0.484375 0 L 29.515625 0 L 29.515625 29.03125 L 0.484375 29.03125 Z M 0.484375 0 " fill-opacity="1" fill-rule="nonzero"/></g></g></g></g></g></g><g clip-path="url(#afc6f310e9)"><path fill="#ffffff" d="M 21.035156 23.234375 L 8.964844 23.234375 C 8.730469 23.234375 8.507812 23.191406 8.289062 23.105469 C 8.074219 23.019531 7.878906 22.894531 7.714844 22.730469 C 7.546875 22.566406 7.417969 22.375 7.324219 22.160156 C 7.234375 21.945312 7.1875 21.722656 7.183594 21.488281 L 7.183594 11.757812 C 7.1875 11.523438 7.234375 11.300781 7.324219 11.085938 C 7.417969 10.871094 7.546875 10.679688 7.714844 10.515625 C 7.878906 10.355469 8.074219 10.226562 8.289062 10.140625 C 8.507812 10.054688 8.730469 10.011719 8.964844 10.011719 L 12.15625 10.011719 C 12.304688 10.011719 12.433594 10.066406 12.539062 10.171875 C 12.644531 10.277344 12.699219 10.40625 12.699219 10.554688 C 12.699219 10.703125 12.644531 10.832031 12.539062 10.9375 C 12.433594 11.042969 12.304688 11.097656 12.15625 11.097656 L 8.964844 11.097656 C 8.777344 11.09375 8.617188 11.15625 8.480469 11.285156 C 8.34375 11.414062 8.273438 11.570312 8.269531 11.757812 L 8.269531 21.488281 C 8.273438 21.675781 8.34375 21.832031 8.480469 21.960938 C 8.617188 22.089844 8.777344 22.152344 8.964844 22.148438 L 21.035156 22.148438 C 21.222656 22.152344 21.382812 22.089844 21.519531 21.960938 C 21.65625 21.832031 21.726562 21.675781 21.730469 21.488281 L 21.730469 11.757812 C 21.726562 11.570312 21.65625 11.414062 21.519531 11.285156 C 21.382812 11.15625 21.222656 11.09375 21.035156 11.097656 L 17.609375 11.097656 C 17.460938 11.097656 17.332031 11.042969 17.226562 10.9375 C 17.121094 10.832031 17.066406 10.703125 17.066406 10.554688 C 17.066406 10.40625 17.121094 10.277344 17.226562 10.171875 C 17.332031 10.066406 17.460938 10.011719 17.609375 10.011719 L 21.035156 10.011719 C 21.269531 10.011719 21.492188 10.054688 21.710938 10.140625 C 21.925781 10.230469 22.117188 10.355469 22.285156 10.519531 C 22.449219 10.683594 22.578125 10.871094 22.671875 11.085938 C 22.761719 11.300781 22.808594 11.523438 22.8125 11.757812 L 22.8125 21.488281 C 22.808594 21.722656 22.761719 21.945312 22.671875 22.160156 C 22.578125 22.375 22.449219 22.5625 22.285156 22.726562 C 22.117188 22.890625 21.925781 23.015625 21.710938 23.105469 C 21.492188 23.191406 21.269531 23.234375 21.035156 23.234375 Z M 15.042969 16.667969 C 14.890625 16.667969 14.765625 16.613281 14.65625 16.507812 C 14.550781 16.402344 14.5 16.273438 14.5 16.125 L 14.5 5.773438 L 11.851562 8.367188 C 11.742188 8.472656 11.617188 8.523438 11.464844 8.519531 C 11.316406 8.519531 11.1875 8.464844 11.082031 8.359375 C 10.976562 8.25 10.925781 8.121094 10.929688 7.972656 C 10.929688 7.824219 10.984375 7.695312 11.089844 7.589844 L 14.746094 4.015625 C 14.777344 3.984375 14.816406 3.957031 14.855469 3.9375 C 14.941406 3.882812 15.039062 3.859375 15.140625 3.863281 C 15.222656 3.863281 15.300781 3.882812 15.375 3.921875 C 15.421875 3.949219 15.460938 3.976562 15.5 4.015625 L 19.082031 7.59375 C 19.1875 7.699219 19.238281 7.828125 19.234375 7.976562 C 19.234375 8.125 19.179688 8.25 19.078125 8.355469 C 18.972656 8.460938 18.84375 8.511719 18.699219 8.515625 C 18.550781 8.515625 18.421875 8.464844 18.316406 8.363281 L 15.585938 5.628906 L 15.585938 16.125 C 15.585938 16.273438 15.53125 16.402344 15.425781 16.507812 C 15.320312 16.613281 15.191406 16.667969 15.042969 16.667969 Z M 15.042969 16.667969 " fill-opacity="1" fill-rule="nonzero"/></g></svg>
